never.surrender.2009.lkrg.mp4

File Size

Format : MPEG-4
Format profile : Base Media
Codec ID : isom
File size : 1.87 GiB
Duration : 1h 22mn
Overall bit rate : 3 233 Kbps

Video
ID : 1
Format : AVC
Format/Info : Advanced Video Codec
Format profile : High@L4.1
Format settings, CABAC : Yes
Format settings, ReFrames : 3 frames
Codec ID : avc1
Codec ID/Info : Advanced Video Coding
Duration : 1h 22mn
Bit rate mode : Variable
Bit rate : 3 006 Kbps
Maximum bit rate : 15.5 Mbps
Width : 1 280 pixels
Height : 720 pixels
Display aspect ratio : 16:9
Frame rate mode : Constant
Frame rate : 25.000 fps
Resolution : 24 bits
Colorimetry : 4:2:0
Scan type : Progressive
Bits/(Pixel*Frame) : 0.130
Stream size : 1.74 GiB (93%)

Audio
ID : 2
Format : AAC
Format/Info : Advanced Audio Codec
Format version : Version 4
Format profile : LC
Format settings, SBR : No
Codec ID : 40
Duration : 1h 22mn
Bit rate mode : Variable
Bit rate : 224 Kbps
Maximum bit rate : 231 Kbps
Channel(s) : 2 channels
Channel positions : L R
Sampling rate : 48.0 KHz
Resolution : 16 bits
Stream size : 132 MiB (7%)

English SRT : N/A

Release Date:----

Language:English

Info Hash:


Tracker Info:
Code: 
http://nemesis.1337x.org/announce
 
http://tracker.openbittorrent.com/announce
 
http://genesis.1337x.org:1337/announce
 
http://exodus.1337x.org/announce




Plot: From the cage to the big screen, the world's greatest Mixed Martial Arts Champions come together for the first time in a major motion picture...

Cast:
Hector Echavarria ... Diego Carter
Patrick Kilpatrick ... Seifer
James Russo ... Jimmy
Silvia Koys ... Sandra
Anderson Silva ... Fighter
Georges St. Pierre ... Georges
B.J. Penn
Fileena Bahris ... Club Girl
Joanne Bahris ... Lady at bar
Carey A. Campbell ... Bookie
Lateef Crowder ... Marco
Will C. ... Body Guard
Eamon Glennon ... Richie
Heath Herring ... Stone
Fabiano Iha ... John
Quinton 'Rampage' Jackson
Sabrina Machado ... Monique
Teresa Noreen ... Dream Angel
Damian Perkins ... Diamond
Javier Rivas ... Rich man
Cristina Rosas ... Marcela
Gino Salvano ... Scarred Man
Gunter Schlierkamp ... Crusher
Jessica Simons ... Exotic Wealthy Woman
Brooke Stadler ... Diego's Fan
Cheryl Lynn Stallard ... Celesta
David Michael Toscano ... Waiter
Giulini Wever ... Dream Angel
Joe Willand ... Additional Voices (voice)
Dustin Zahursky ... Bill West

Genre: Action | Drama








 
http://www.imdb.com/title/tt1307989/

Another Quality Upload Brought To 